<svg width="788" height="1044" viewBox="0 0 788 1044" fill="none" xmlns="http://www.w3.org/2000/svg">
<path d="M317.715 42.5187C353.434 -12.9744 434.566 -12.9745 470.284 42.5186L724.498 437.477C824.614 593.021 802.721 797.324 671.922 928.123C518.43 1081.62 269.57 1081.62 116.078 928.124C-14.7218 797.324 -36.6144 593.021 63.5014 437.477L317.715 42.5187Z" fill="#FF8C00"/>
<path d="M41.9408 235.422C47.5197 181.805 114.142 160.359 149.951 200.652L351.919 427.907C357.125 433.765 360 441.328 360 449.165V642.297C360 661.352 343.451 676.184 324.51 674.106L31.6312 641.971C14.1331 640.051 1.47134 624.358 3.29313 606.85L41.9408 235.422Z" fill="#FF8C00"/>
</svg>
